PathFileType	4	(X/Y/Z)	s03c0103.trc
DataRate	CameraRate	NumFrames	NumMarkers	Units	OrigDataRate	OrigDataStartFrame	OrigNumFrames
200	200	7	50	mm	200	500	2000
Frame#	Time	racr			lacr			c7			jug			rlel			rdr			llel			ldr			s2			lic			ric			lasi			rasi			rpsi			lpsi			rgt			lgt			rth1			rth2			rth3			rth4			rlfc			rmfc			rsh1			rsh2			rsh3			rsh4			rlmal			rcal			rtoe			rmt5			rmt1			lth1			lth2			lth4			lth3			llfc			lmfc			lsh1			lsh2			lsh3			lsh4			llmal			lcal			ltoe			lmt1			lmt5			SBIKE			LBIKE			RBIKE			
		X1	Y1	Z1	X2	Y2	Z2	X3	Y3	Z3	X4	Y4	Z4	X5	Y5	Z5	X6	Y6	Z6	X7	Y7	Z7	X8	Y8	Z8	X9	Y9	Z9	X10	Y10	Z10	X11	Y11	Z11	X12	Y12	Z12	X13	Y13	Z13	X14	Y14	Z14	X15	Y15	Z15	X16	Y16	Z16	X17	Y17	Z17	X18	Y18	Z18	X19	Y19	Z19	X20	Y20	Z20	X21	Y21	Z21	X22	Y22	Z22	X23	Y23	Z23	X24	Y24	Z24	X25	Y25	Z25	X26	Y26	Z26	X27	Y27	Z27	X28	Y28	Z28	X29	Y29	Z29	X30	Y30	Z30	X31	Y31	Z31	X32	Y32	Z32	X33	Y33	Z33	X34	Y34	Z34	X35	Y35	Z35	X36	Y36	Z36	X37	Y37	Z37	X38	Y38	Z38	X39	Y39	Z39	X40	Y40	Z40	X41	Y41	Z41	X42	Y42	Z42	X43	Y43	Z43	X44	Y44	Z44	X45	Y45	Z45	X46	Y46	Z46	X47	Y47	Z47	X48	Y48	Z48	X49	Y49	Z49	X50	Y50	Z50	
500	2.5000	479.855876	1405.320846	-104.474824	427.992399	1426.370064	-402.760865	377.507327	1498.974984	-238.084573	403.442398	1328.494716	-251.304706	532.591883	1140.976052	-7.727758	745.542761	939.701612	-49.288567	520.208515	1171.967856	-458.492042	736.751854	951.489346	-429.983788	-125.894355	1194.170042	-210.277063	31.230746	1254.099387	-401.518132	45.103354	1223.403854	-29.561489	62.378486	1180.676088	-358.385745	75.674810	1159.462303	-73.924140	-102.915706	1243.836474	-159.204905	-100.168672	1249.941091	-242.171369	-9.380194	1103.814526	-23.575194	3.633037	1152.387220	-419.039591	93.372361	979.999667	-8.205077	173.336357	941.346922	-3.862580	224.376408	872.080549	-9.477454	197.273671	968.145632	-12.022311	298.908690	768.091924	-35.615151	307.332609	757.561841	-158.231804	211.890632	623.872429	-21.128939	184.844087	541.544425	-44.064932	119.628464	483.087470	-51.376746	213.972365	531.025919	-66.361468	40.713001	381.953962	-83.466300	-28.673808	373.894301	-125.639942	225.616389	192.707056	-109.350793	115.062898	248.380054	-48.073650	151.735583	244.375846	-159.455040	130.451255	1060.558597	-445.239304	213.526078	1037.507411	-449.698487	232.273096	1067.488539	-440.011339	275.564372	972.635798	-447.812609	395.247255	909.328199	-431.908739	397.850193	895.325514	-304.910990	334.758468	747.033331	-451.878939	329.250442	663.493723	-432.780280	279.546577	588.128331	-428.939098	358.011239	656.466194	-408.028598	234.438227	466.774173	-409.742565	177.045933	403.373279	-361.415726	480.814014	466.775653	-366.490279	390.478728	443.278463	-320.067773	368.886829	416.861547	-436.491210	-217.855406	943.360120	-234.057275	-12.091106	80.638473	-435.566384	-11.595741	80.266415	-34.917804	
501	2.5050	480.101471	1405.287256	-104.987085	428.115069	1426.662916	-402.924490	377.835873	1499.129606	-238.418799	403.576232	1328.627911	-251.696900	532.704040	1141.255489	-7.593802	745.425877	939.765420	-49.054908	520.308827	1172.188714	-458.323262	736.636224	951.765700	-429.788322	-126.329164	1195.726183	-210.442846	32.347325	1254.564566	-402.672832	44.273946	1224.629815	-30.398447	62.948331	1180.941490	-359.336092	74.969022	1160.417482	-74.403591	-99.269166	1243.812548	-161.752500	-105.353260	1252.201182	-240.763389	-10.469027	1105.537951	-24.326407	4.210992	1152.231860	-419.741596	93.240735	982.413650	-8.791008	173.475012	944.316436	-4.367869	224.975722	875.299928	-9.483164	197.215406	971.240971	-12.622001	300.004978	771.227900	-34.983884	308.080184	760.476331	-157.689358	212.105564	627.418942	-20.676375	184.260745	545.362255	-43.881450	118.518874	487.445207	-51.169922	213.313971	534.697425	-66.131729	38.594227	387.209678	-83.378818	-30.861819	379.320582	-125.432908	222.654398	197.217913	-109.306489	112.352981	253.248546	-48.066385	149.036265	249.208666	-159.406364	130.387236	1059.292095	-445.390208	213.241592	1035.389471	-449.421812	232.234268	1065.199536	-439.839015	274.632426	969.874773	-447.209726	393.836693	905.565383	-430.716942	396.003286	891.606706	-303.907938	334.700528	742.639302	-451.375698	329.969588	659.104800	-432.608670	281.075865	583.113389	-428.880026	358.842909	652.170835	-407.643636	237.014797	461.293986	-410.349775	179.739492	397.633025	-362.363457	483.558545	462.429401	-365.845089	392.912819	438.346626	-319.999682	371.925484	411.940339	-436.557446	-217.836632	943.395209	-234.115638	-12.087536	80.649740	-435.551227	-11.598083	80.276760	-34.906551	
502	2.5100	480.404460	1405.333322	-105.457620	428.350081	1426.901356	-403.051083	378.252328	1499.295311	-238.756560	403.803017	1328.766911	-252.014313	533.263936	1141.983377	-7.020852	745.309355	939.838062	-48.856301	520.558844	1172.412546	-458.247143	736.688814	951.777447	-429.595584	-126.583719	1196.797256	-211.753955	33.358227	1254.951659	-403.805744	43.561833	1225.716689	-31.291478	63.446837	1181.113723	-360.076890	74.255251	1161.514287	-74.929085	-96.626837	1244.232740	-164.017033	-99.721781	1251.517087	-245.317769	-11.428809	1107.300144	-25.067813	4.796756	1152.068720	-420.439136	93.195637	984.929576	-9.383335	173.688380	947.339075	-4.861583	225.607682	878.689243	-9.536302	197.162152	974.465640	-13.238459	301.193609	774.555227	-34.253103	308.847059	763.548926	-157.160215	212.410778	631.027312	-20.269384	183.813137	549.260503	-43.652279	117.497132	491.920952	-50.910134	212.744653	538.482005	-65.954496	36.612907	392.615517	-83.195806	-32.996449	384.896100	-125.414160	219.836214	201.662549	-109.389455	109.754008	258.208134	-48.020029	146.532711	254.062787	-159.185111	130.262787	1057.955005	-445.594765	212.886209	1033.080129	-449.160997	232.166357	1062.810838	-439.727529	273.575278	967.040535	-446.643875	392.382892	901.735452	-429.645238	394.104518	888.034088	-302.969274	334.715258	738.266831	-451.331007	330.615548	654.470366	-432.342120	282.501455	578.019117	-428.925696	359.546785	647.973687	-407.874286	239.543796	455.739336	-411.039114	182.410594	391.763128	-363.348763	485.995271	457.566319	-365.378692	395.213307	433.313250	-320.064040	374.819771	406.927319	-436.708072	-217.918219	943.422545	-234.001700	-12.087816	80.657554	-435.559216	-11.596440	80.277528	-34.912108	
503	2.5150	480.753263	1405.416625	-105.910925	428.692304	1427.134374	-403.184429	378.757897	1499.463791	-239.131462	404.121321	1328.905286	-252.317218	533.021824	1141.964396	-7.308342	745.224923	939.927666	-48.650295	520.925241	1172.673783	-458.246378	736.819682	951.778086	-429.435519	-126.608794	1197.902413	-213.094377	34.317499	1255.333238	-404.892288	42.950397	1226.850399	-32.140273	64.045023	1181.306819	-360.966973	71.717269	1162.359153	-76.915499	-97.273839	1245.605764	-165.482934	-98.001780	1252.416434	-246.115769	-12.272677	1109.118136	-25.774722	5.387075	1151.871728	-421.191275	93.309423	987.403975	-9.937602	174.027622	950.472886	-5.384596	226.382129	882.053212	-9.460142	197.406123	977.574922	-14.007092	302.427665	777.951491	-33.452735	309.835850	766.491700	-156.491223	212.822639	634.725911	-19.728190	183.487460	553.364905	-43.294511	116.662177	496.518602	-50.635677	212.248845	542.319812	-65.702809	34.676911	398.065715	-83.051641	-34.962129	390.492401	-125.288417	217.201859	206.365864	-109.370004	107.338355	263.174649	-48.041611	143.999847	258.920187	-159.200406	130.013904	1056.515890	-445.795649	212.446460	1030.684600	-449.015920	232.048863	1060.224915	-439.692685	272.464279	964.075124	-446.145024	390.769301	897.886205	-429.366434	392.151793	884.525480	-302.024464	334.572705	733.913843	-451.925680	331.174423	649.767235	-432.153828	283.856851	572.767148	-429.108596	360.203835	643.507260	-407.783449	242.073256	450.099211	-411.731884	184.857835	385.818554	-364.510767	488.262599	452.676368	-364.930398	397.405364	428.189544	-320.103489	377.277863	402.342740	-437.757848	-217.870794	943.472934	-234.079093	-12.079845	80.676106	-435.560657	-11.909283	80.711583	-34.847986	
504	2.5200	481.051010	1405.479624	-106.320469	429.137606	1427.347038	-403.297163	379.284864	1499.592224	-239.458114	404.486923	1329.008531	-252.583720	534.207743	1142.508753	-6.759893	745.167260	940.010953	-48.489431	521.313441	1172.936894	-458.305392	735.654005	950.741850	-426.828008	-126.569951	1199.106102	-214.793396	35.307309	1255.554653	-406.012592	42.398808	1228.015084	-33.026151	64.668668	1181.496780	-361.934001	71.112365	1163.490184	-77.631963	-97.623070	1246.983178	-166.965812	-97.599984	1253.368416	-247.584413	-12.995733	1110.928908	-26.484059	5.941732	1151.585867	-421.844888	93.496894	990.014041	-10.452648	174.443206	953.625846	-5.860399	227.205305	885.606186	-9.419694	197.583262	980.882661	-14.689091	303.828364	781.470159	-32.566406	310.929545	769.504569	-155.670771	213.290401	638.526608	-19.238263	183.782196	557.934905	-41.906728	115.961964	501.047970	-50.622104	211.812075	546.279852	-65.445701	32.913033	403.631339	-82.852862	-36.860758	396.361504	-125.207162	214.752969	211.245532	-109.324996	104.979814	268.461399	-47.962651	141.600135	264.152392	-159.287130	129.837997	1054.888562	-446.059832	211.971608	1028.120603	-448.938106	231.893490	1057.577022	-439.734432	271.275467	960.929958	-445.745682	389.050105	893.721224	-428.544999	390.257144	879.516007	-301.927590	334.307593	729.137387	-451.830790	332.116687	645.678533	-433.914843	285.153085	567.460917	-429.406758	360.766286	638.559609	-406.980765	244.366799	444.406370	-412.631868	187.228241	379.904731	-365.735796	490.523158	447.654901	-364.348722	399.714801	422.775972	-319.351172	379.999077	397.097152	-437.928020	-217.766199	943.507952	-234.327793	-12.077211	80.691277	-435.568315	-11.915391	80.697360	-34.853296	
505	2.5250	481.364340	1405.573593	-106.718193	429.620560	1427.530241	-403.432003	379.869827	1499.707745	-239.846897	404.895127	1329.090559	-252.830766	534.500506	1142.878274	-6.692216	745.159277	940.044614	-48.419537	521.844179	1173.170702	-458.562512	735.796681	950.699897	-426.765218	-126.276160	1199.680384	-217.743374	36.120200	1255.705545	-407.029827	41.889240	1229.243008	-33.927541	65.017352	1181.273739	-362.018634	70.639172	1164.593865	-78.332906	-98.026087	1248.238707	-168.374445	-96.825175	1254.181420	-248.864316	-13.631766	1112.745762	-27.163372	6.531426	1151.128433	-422.507335	93.780902	992.746040	-10.904077	174.987391	956.894739	-6.316093	228.169865	889.112371	-9.318239	197.610502	984.453137	-14.815078	305.287149	785.121986	-31.641649	312.164777	772.584819	-154.825850	213.936547	642.279555	-18.619591	183.650308	562.097738	-41.513431	115.316054	505.838608	-50.278417	211.458539	550.311670	-65.163793	31.272146	409.387782	-82.585373	-38.606201	402.072455	-124.971182	212.432270	216.220326	-109.328858	102.840300	273.748289	-48.000387	139.484726	269.399473	-159.166538	129.658092	1053.151897	-446.318874	211.484135	1025.450548	-448.857373	231.701998	1054.761202	-439.852740	270.039135	957.638668	-445.379928	387.315305	889.408793	-427.787930	388.196875	875.131349	-301.354290	334.035375	724.190414	-451.684631	332.568916	640.667573	-433.919623	286.563536	562.022594	-429.936720	361.259693	633.786942	-406.926303	246.595335	438.604192	-413.506102	189.491149	373.863915	-366.995053	492.245083	442.017111	-364.414985	401.613893	417.459871	-319.441584	382.702088	391.412024	-437.682660	-217.723237	943.514116	-234.418376	-12.061146	80.705858	-435.564103	-11.919980	80.721917	-34.864874	
506	2.5300	481.738277	1405.760380	-107.060761	430.177258	1427.636663	-403.665195	380.529173	1499.825231	-240.250358	405.392235	1329.168883	-252.984789	534.817176	1143.248048	-6.738398	745.137801	940.026201	-48.466287	522.260979	1173.323017	-458.895158	735.977548	950.628098	-426.842106	-125.931078	1200.772645	-219.209375	37.045143	1255.840436	-408.064854	41.447272	1230.374253	-34.894740	65.668144	1181.275796	-362.777164	70.130670	1165.746978	-79.067474	-98.358670	1249.453637	-169.759902	-96.591241	1255.059225	-250.311011	-14.090208	1114.629204	-27.801836	6.798342	1150.720733	-423.425700	94.146749	995.504071	-11.310202	175.748878	960.059186	-7.053243	229.239921	892.737153	-9.150365	198.137007	987.709905	-15.613083	306.831084	788.833527	-30.607038	313.487298	775.658035	-153.982841	214.601320	646.186350	-17.971065	183.248772	566.409718	-41.419080	114.724422	510.786873	-49.934301	211.271062	554.437885	-64.770034	29.653714	415.091424	-82.363636	-40.272733	407.981501	-124.964553	211.371627	222.055010	-108.858754	100.777872	279.076867	-47.968096	137.525619	274.877319	-159.133419	129.474731	1051.244171	-446.599823	210.965775	1022.620553	-448.911843	231.250969	1051.370150	-438.825457	268.756910	954.137443	-445.068217	385.389311	884.934119	-427.139126	385.909213	870.388311	-300.671652	333.690549	719.143858	-451.641610	332.917096	635.538897	-433.872158	287.702014	556.638403	-430.459249	361.659741	628.982931	-406.925627	248.725674	432.681080	-414.457407	191.577450	367.802360	-368.194985	494.227320	436.719861	-363.964069	403.394893	411.967473	-319.576817	385.037816	386.129599	-438.325634	-217.664181	943.543625	-234.521279	-12.069746	80.694748	-435.571498	-11.932000	80.753462	-34.880623	
